<svg width="40" height="40" viewBox="0 0 40 40" fill="none" xmlns="http://www.w3.org/2000/svg">
<path d="M18.1839 3.93733C18.8987 2.38758 21.1013 2.38759 21.8161 3.93733L25.1738 11.2169C25.4652 11.8485 26.0637 12.2834 26.7545 12.3652L34.7153 13.3091C36.4101 13.5101 37.0907 15.6049 35.8377 16.7636L29.9521 22.2065C29.4414 22.6787 29.2128 23.3824 29.3483 24.0646L30.9107 31.9275C31.2433 33.6014 29.4614 34.8961 27.9721 34.0625L20.9769 30.1468C20.3699 29.8071 19.6301 29.8071 19.0231 30.1468L12.0279 34.0625C10.5386 34.8961 8.75672 33.6014 9.08933 31.9275L10.6517 24.0646C10.7872 23.3824 10.5586 22.6787 10.0479 22.2065L4.16228 16.7636C2.90928 15.6048 3.58992 13.5101 5.2847 13.3091L13.2455 12.3652C13.9363 12.2834 14.5348 11.8485 14.8262 11.2169L18.1839 3.93733Z" fill="#D9D9D9"/>
<circle cx="16" cy="17" r="1" fill="#010000"/>
<circle cx="24" cy="17" r="1" fill="#010000"/>
<mask id="path-4-inside-1_14_38" fill="white">
<path fill-rule="evenodd" clip-rule="evenodd" d="M17 22C17 23.1046 18.3431 24 20 24C21.6569 24 23 23.1046 23 22H17Z"/>
</mask>
<path fill-rule="evenodd" clip-rule="evenodd" d="M17 22C17 23.1046 18.3431 24 20 24C21.6569 24 23 23.1046 23 22H17Z" fill="#010000"/>
<path d="M17 22V21C16.4477 21 16 21.4477 16 22H17ZM23 22H24C24 21.4477 23.5523 21 23 21V22ZM20 23C19.3415 23 18.7905 22.8202 18.4334 22.5822C18.0693 22.3394 18 22.1139 18 22H16C16 22.9907 16.6023 23.7651 17.324 24.2463C18.0526 24.732 19.0017 25 20 25V23ZM22 22C22 22.1139 21.9307 22.3394 21.5666 22.5822C21.2095 22.8202 20.6585 23 20 23V25C20.9983 25 21.9474 24.732 22.676 24.2463C23.3977 23.7651 24 22.9907 24 22H22ZM23 21H17V23H23V21Z" fill="black" mask="url(#path-4-inside-1_14_38)"/>
</svg>
